<svg width="1153" height="1566" viewBox="0 0 1153 1566" fill="none" xmlns="http://www.w3.org/2000/svg">
<path d="M405.544 55.8974L911.182 931.688C911.182 931.688 942.549 991.267 907.882 1011.28C873.215 1031.3 837.87 974.015 837.87 974.015L611.704 582.285C611.704 582.285 598.096 562.652 582.183 571.839C566.27 581.026 578.173 601.643 578.173 601.643L804.339 993.374C804.339 993.374 833.889 1043.24 799.79 1062.93C765.691 1082.62 737.278 1032.09 737.278 1032.09L593.917 783.783L593.003 782.2C590.745 779.005 583.883 772.843 567.846 782.102C547.228 794.006 554.474 806.556 554.474 806.556L824.116 1273.59C824.116 1273.59 848.062 1317.14 816.687 1335.25C785.313 1353.36 761.367 1309.82 761.367 1309.82L715.822 1230.93C715.822 1230.93 702.607 1203.9 677.507 1218.39C652.407 1232.88 667.415 1258.88 667.415 1258.88L814.399 1513.46C814.399 1513.46 827.477 1538.18 803.273 1552.16C779.07 1566.13 765.993 1541.41 765.993 1541.41L368.517 852.962C368.517 852.962 350.023 823.001 374.227 809.027C398.43 795.054 416.923 825.014 416.923 825.014L491.967 954.995C491.967 954.995 504.906 977.405 530.006 962.914C555.106 948.423 540.374 927.047 540.374 927.047L386.665 660.816C386.665 660.816 367.513 627.644 397.991 610.047C428.47 592.451 449.415 624.588 449.415 624.588L528.079 760.839C528.079 760.839 534.807 772.492 555.425 760.588C571.462 751.329 569.87 742.848 568.371 739.536L567.522 738.066L231.64 156.301C231.64 156.301 199.552 100.723 233.651 81.0363C267.75 61.3493 298.701 117.583 298.701 117.583L485.016 440.29C485.016 440.29 496.919 460.908 512.832 451.72C528.745 442.533 518.547 420.931 518.547 420.931L332.232 98.2245C332.232 98.2245 300.093 43.8711 336.516 21.6471C372.939 -0.576925 405.544 55.8974 405.544 55.8974Z" fill="url(#paint0_linear)"/>
<defs>
<linearGradient id="paint0_linear" x1="285.601" y1="51.0286" x2="856.974" y2="1040.68" gradientUnits="userSpaceOnUse">
<stop stop-color="#00B59C"/>
<stop offset="1" stop-color="#9CFFAC"/>
</linearGradient>
</defs>
</svg>
