<svg width="1153" height="1566" viewBox="0 0 1153 1566" fill="none" xmlns="http://www.w3.org/2000/svg">
<path d="M405.008 55.5885L910.646 931.379C910.646 931.379 942.013 990.958 907.346 1010.97C872.679 1030.99 837.333 973.706 837.333 973.706L611.168 581.976C611.168 581.976 597.559 562.343 581.647 571.53C565.734 580.717 577.637 601.335 577.637 601.335L803.803 993.065C803.803 993.065 833.353 1042.93 799.254 1062.62C765.155 1082.31 736.742 1031.78 736.742 1031.78L593.381 783.474L592.467 781.891C590.209 778.697 583.347 772.534 567.31 781.793C546.692 793.697 553.938 806.247 553.938 806.247L823.58 1273.28C823.58 1273.28 847.526 1316.83 816.151 1334.94C784.776 1353.05 760.831 1309.51 760.831 1309.51L715.286 1230.62C715.286 1230.62 702.07 1203.59 676.971 1218.08C651.871 1232.58 666.879 1258.57 666.879 1258.57L813.863 1513.15C813.863 1513.15 826.941 1537.88 802.737 1551.85C778.534 1565.82 765.457 1541.1 765.457 1541.1L367.98 852.653C367.98 852.653 349.487 822.692 373.691 808.719C397.894 794.745 416.387 824.705 416.387 824.705L491.431 954.686C491.431 954.686 504.37 977.097 529.47 962.605C554.569 948.114 539.838 926.739 539.838 926.739L386.129 660.507C386.129 660.507 366.977 627.335 397.455 609.738C427.934 592.142 448.879 624.279 448.879 624.279L527.543 760.53C527.543 760.53 534.271 772.183 554.889 760.279C570.926 751.02 569.334 742.539 567.835 739.227L566.986 737.757L231.104 155.992C231.104 155.992 199.016 100.414 233.115 80.7274C267.214 61.0404 298.165 117.274 298.165 117.274L484.48 439.981C484.48 439.981 496.383 460.599 512.296 451.411C528.209 442.224 518.01 420.622 518.01 420.622L331.696 97.9156C331.696 97.9156 299.557 43.5622 335.98 21.3382C372.403 -0.885854 405.008 55.5885 405.008 55.5885Z" fill="url(#paint0_linear)" fill-opacity="0.5"/>
<defs>
<linearGradient id="paint0_linear" x1="285.065" y1="50.7196" x2="856.438" y2="1040.37" gradientUnits="userSpaceOnUse">
<stop stop-color="#00B59C"/>
<stop offset="1" stop-color="#9CFFAC"/>
</linearGradient>
</defs>
</svg>
