<?xml version="1.0" encoding="utf-8"?>
<!-- Generator: Adobe Illustrator 23.0.1, SVG Export Plug-In . SVG Version: 6.00 Build 0)  -->
<svg version="1.1" id="Layer_1" xmlns="http://www.w3.org/2000/svg" xmlns:xlink="http://www.w3.org/1999/xlink" x="0px" y="0px"
	 viewBox="0 0 427.26 189.59" style="enable-background:new 0 0 427.26 189.59;" xml:space="preserve">
<style type="text/css">
	.st0{fill:url(#SVGID_1_);}
	.st1{fill:#FFFFFF;}
	.st2{fill:#00AEEF;}
	.st3{fill:#ED1C24;}
	.st4{fill:url(#SVGID_2_);stroke:#FFFFFF;stroke-width:4;stroke-miterlimit:10;}
	.st5{fill:url(#SVGID_3_);stroke:#FFFFFF;stroke-width:4;stroke-miterlimit:10;}
	.st6{fill:url(#SVGID_4_);}
	.st7{fill:url(#SVGID_5_);stroke:#FFFFFF;stroke-width:7;stroke-miterlimit:10;}
	.st8{fill:#1D3B1B;}
	.st9{fill:url(#SVGID_6_);}
	.st10{fill:url(#SVGID_7_);}
	.st11{fill:url(#SVGID_8_);}
	.st12{fill:url(#SVGID_9_);}
	.st13{fill:url(#SVGID_10_);}
	.st14{fill:url(#SVGID_11_);stroke:#FFFFFF;stroke-width:4;stroke-miterlimit:10;}
	.st15{fill:url(#SVGID_12_);stroke:#FFFFFF;stroke-width:4;stroke-miterlimit:10;}
	.st16{fill:url(#SVGID_13_);}
	.st17{fill:url(#SVGID_14_);}
	.st18{clip-path:url(#SVGID_16_);}
	.st19{fill:#3A596C;}
	.st20{fill:url(#SVGID_17_);}
	.st21{fill:url(#SVGID_18_);}
	.st22{fill:url(#SVGID_19_);}
</style>
<g>
	<g>
		<path class="st19" d="M30.47,149h7.91c0,0-1.96-14.89-18.21-14.89S0,151.9,0,157.43c0,5.53,5.28,21.11,18.64,21.11
			s13.02-5.79,13.02-5.79h1.62v4.85h6.21v-22.72H22.64v6.3h8.77v4.26c0,0-4.26,6.55-10.72,6.55s-11.74-7.15-11.66-14.89
			c0.09-7.74,3.15-14.72,10.38-14.72S30.3,147.05,30.47,149z"/>
		<path class="st19" d="M282.21,149h7.91c0,0-1.96-14.89-18.21-14.89c-16.26,0-20.17,17.79-20.17,23.32
			c0,5.53,5.28,21.11,18.64,21.11c13.36,0,13.02-5.79,13.02-5.79h1.62v4.85h6.21v-22.72h-16.85v6.3h8.77v4.26
			c0,0-4.26,6.55-10.72,6.55s-11.74-7.15-11.66-14.89c0.09-7.74,3.15-14.72,10.38-14.72S282.04,147.05,282.21,149z"/>
		<path class="st19" d="M79.57,147.13c0.27,0,26.55,0,26.55,0v6.72l-15.74,17.11h16.51v6.64H78.81v-6.47l14.89-17.36H79.32v-6.7
			C79.32,147.07,79.55,147.13,79.57,147.13z"/>
		<path class="st19" d="M65.7,146.11c-5.36-0.34-8.1-0.24-10.79,0.21c-3.22,0.55-8.28,2.09-8.45,9.83h7.74c0,0,0.6-4.67,6.64-4.34
			c1.53,0.08,4.94,0.68,4.94,3.66c0,2.98-3.23,4.09-3.23,4.09s-17.62-1.28-17.62,10.21s16,11.32,19.57,5.36h1.96v2.89h7.4v-25.36
			C73.87,152.66,71.06,146.45,65.7,146.11z M64.83,170.03c-0.45,1.28-4.08,3.19-5.36,3.19s-6.57-0.57-5.74-4.85
			c0.83-4.28,10.66-4.28,10.66-4.28C64.32,164.09,65.28,168.75,64.83,170.03z"/>
		<path class="st19" d="M130.04,146.11c-5.36-0.34-8.1-0.24-10.79,0.21c-3.22,0.55-8.28,2.09-8.45,9.83h7.74c0,0,0.6-4.67,6.64-4.34
			c1.53,0.08,4.94,0.68,4.94,3.66c0,2.98-3.23,4.09-3.23,4.09s-17.62-1.28-17.62,10.21s16,11.32,19.57,5.36h1.96v2.89h7.4v-25.36
			C138.21,152.66,135.4,146.45,130.04,146.11z M129.17,170.03c-0.45,1.28-4.08,3.19-5.36,3.19s-6.57-0.57-5.74-4.85
			c0.83-4.28,10.66-4.28,10.66-4.28C128.66,164.09,129.62,168.75,129.17,170.03z"/>
		<path class="st19" d="M179.57,147.47c0,0-2.34-9.62-12.3-9.62s-10.21,8.17-10.21,8.81c0,0.64,0.89,5.23,7.02,6
			c6.13,0.77,20.94,3.57,20.94,13.91s-10.6,11.74-10.6,11.74h-10.09c0,0-11.62,0.77-13.02-14.55h4.34c0,0,0.64,9.96,9.32,10.85
			c8.68,0.89,12.26-1.66,12.26-1.66s3.32-1.79,2.68-6.26c-0.64-4.47-6.77-7.02-6.77-7.02s-19.02-2.94-20.94-10.85
			c-1.91-7.91,8.43-14.3,9.7-14.68s10.98,0,10.98,0s9.74,2.77,10.55,12.85C183.45,147,179.62,147.47,179.57,147.47z"/>
		<path class="st19" d="M190.19,135.49v41.68h4.85v-10.66l4.28-4.28l13.66,15.83h3.64l-0.32-2.74l-11.87-15.89l11.17-10.79
			l-0.19-2.62l-4.15-0.13l-16.66,14.55v-25.02C194.6,135.43,190.19,135.43,190.19,135.49z"/>
		<path class="st19" d="M217.11,147.47h4.43l9.57,24.28l9.32-25.6l3.96,0.06l-13.28,36.57c0,0-2.23,6.64-7.15,6.77
			c-4.91,0.13-4.91-0.19-4.91-0.19v-4.47l5.04-0.06c0,0,4.21-1.28,4.53-7.6L217.11,147.47z"/>
		<path class="st19" d="M318.68,168.17c0,0-1.53,4.66-6.38,4.6c-4.85-0.06-7.66-4.28-7.6-8.49h21.26l0.19-7.28
			c0,0-1.85-11.43-15.64-11.43s-14.17,14.11-14.17,14.11v6.64c0,0,5.49,12.89,14.04,12.89s14.81-6.26,15.89-9l0.13-2.04H318.68z
			 M311.72,152.22c6.06,0,6.7,6.96,6.7,6.96H304.7C304.7,159.17,305.66,152.22,311.72,152.22z"/>
		<path class="st19" d="M352.13,168.17c0,0-1.53,4.66-6.38,4.6c-4.85-0.06-7.66-4.28-7.6-8.49h21.26l0.19-7.28
			c0,0-1.85-11.43-15.64-11.43s-14.17,14.11-14.17,14.11v6.64c0,0,5.49,12.89,14.04,12.89s14.81-6.26,15.89-9l0.13-2.04H352.13z
			 M345.17,152.22c6.06,0,6.7,6.96,6.7,6.96h-13.72C338.15,159.17,339.11,152.22,345.17,152.22z"/>
		<path class="st19" d="M366.47,135.3h8.85v22.55l10.04-10.55h10.13l-10.38,11.32l12.34,18.55h-10.47l-8.43-12.94l-3.15,2.89v10.3
			h-8.43C366.98,177.43,366.47,135.22,366.47,135.3z"/>
		<path class="st19" d="M418.64,156.07h8.17c0,0-2.55-10.11-11.87-9.98h-6.7c0,0-8.43,1.02-8.43,8.81s8.49,9.06,8.49,9.06
			s10.34,2.04,10.34,5.17c0,3.13-2.94,4.34-5.68,4.02c-2.74-0.32-5.62-1.79-6.32-5.17h-8.23c0,0,3.32,10.28,9.89,10.28
			s11.55,0,11.55,0s7.4-4.15,7.4-7.15s0-4.66,0-4.66s-1.85-6.51-10.6-7.4s-9.19-2.62-8.87-4.98
			C408.11,151.71,417.81,149.13,418.64,156.07z"/>
	</g>
	<g>
		<linearGradient id="SVGID_1_" gradientUnits="userSpaceOnUse" x1="155.0358" y1="47.864" x2="253.9415" y2="47.864">
			<stop  offset="0" style="stop-color:#F47A23"/>
			<stop  offset="0.9391" style="stop-color:#E89923"/>
		</linearGradient>
		<path class="st0" d="M231.39,1.39c-3.04,1.48-5.07,3.75-6.42,6.16c-0.45-0.21-14.26-6.5-22.9-0.34c-2.12,1.51-3.52,3.7-4.43,6.15
			c-4.72-0.49-20.67-1.29-26.66,9.1c-7.06,12.26-3.4,24.09-2.81,26.3c0,0-28.04,10.21-2.13,46.98c0,0,29.36-31.91,33.45-34.72
			l2.68-9.96l-35.62,38.04c0,0-18.51-27.57,6.13-36.64c0,0-12.1-39.6,23.87-34.93c-1.16,6.82,0.21,13.9,0.21,13.9l1.2-0.03
			c0.68-28.8,20.92-21.81,25.37-19.92c-1.19,3.93-1.03,7.33-1.03,7.33l1.19,0.17c5.45-24.51,28.26-11.23,28.26-11.23l2.21-2.21
			C253.94,5.52,241.09-3.34,231.39,1.39z"/>
		<linearGradient id="SVGID_2_" gradientUnits="userSpaceOnUse" x1="229.7288" y1="27.0471" x2="262.1543" y2="27.0471">
			<stop  offset="0" style="stop-color:#F47A23"/>
			<stop  offset="0.9391" style="stop-color:#E89923"/>
		</linearGradient>
		<polygon style="fill:url(#SVGID_2_);" points="229.73,34.2 234.71,35.22 262.15,18.88 		"/>
		<path class="st19" d="M198.71,41.86l4.47,2.55c0,0-36.89,29.11-39.32,32.43L198.71,41.86z"/>
		<path class="st19" d="M216.71,29.09l2.04,5.62l44.04-22.09c0,0,5.49,5.87,5.74,14.94c0.26,9.06-3.19,16.85-14.55,21.19
			c0,0,11.36,23.62-4.47,30.77c-15.83,7.15-19.28,2.94-19.28,2.94l-0.64-14.81c0,0-1.15,18.64-10.47,20.55s-14.04,0.64-14.04,0.64
			l0.64-7.66c0,0-1.66,6.77-3.57,8.04c-1.91,1.28-11.74,14.17-25.66,2.81l-2.81,2.81c0,0,4.6,6.26,14.55,5.36
			c9.96-0.89,16.09-8.3,16.09-8.3s13.53,7.66,24.77-5.62c-0.13-0.26,23.36,6.64,31.28-13.15c0,0,5.62-8.81-1.79-22.6
			c0,0,19.91-7.02,11.62-33.06l-5.49-10.72L216.71,29.09z"/>
		<linearGradient id="SVGID_3_" gradientUnits="userSpaceOnUse" x1="199.3883" y1="40.8769" x2="227.9841" y2="40.8769">
			<stop  offset="0" style="stop-color:#F47A23"/>
			<stop  offset="0.9391" style="stop-color:#E89923"/>
		</linearGradient>
		<path style="fill:url(#SVGID_3_);" d="M214.45,26.71l2.89,10.89l10.64,0.17l-8.34,6.81l3.15,10.04c0,0-8.94-5.28-9.02-5.62
			c-0.09-0.34-9.62,6.04-9.62,6.04s4.85-10.64,4.77-10.38c-0.09,0.26-9.53-5.02-9.53-5.02l10.81-1.96L214.45,26.71z"/>
	</g>
</g>
</svg>
