<svg width="493" height="474" viewBox="0 0 493 474" fill="none" xmlns="http://www.w3.org/2000/svg">
<path d="M35.0869 299.328H44.1955C44.1955 299.328 41.9385 282.207 23.2262 282.207C4.51397 282.207 0 302.663 0 309.022C0 315.38 6.08004 333.295 21.4644 333.295C36.8488 333.295 36.4572 326.637 36.4572 326.637H38.3227V332.214H45.4737V306.089H26.0705V313.333H36.1694V318.232C36.1694 318.232 31.2639 325.763 23.825 325.763C16.3862 325.763 10.3061 317.542 10.3983 308.642C10.5019 299.742 14.0256 291.716 22.3511 291.716C30.6766 291.716 34.8912 297.086 35.0869 299.328Z" fill="#3A596C"/>
<path d="M324.972 299.328H334.08C334.08 299.328 331.823 282.207 313.111 282.207C294.387 282.207 289.885 302.663 289.885 309.022C289.885 315.38 295.965 333.295 311.349 333.295C326.734 333.295 326.342 326.637 326.342 326.637H328.207V332.214H335.358V306.089H315.955V313.333H326.054V318.232C326.054 318.232 321.149 325.763 313.71 325.763C306.271 325.763 300.191 317.542 300.283 308.642C300.387 299.742 303.91 291.716 312.236 291.716C320.561 291.716 324.776 297.086 324.972 299.328Z" fill="#3A596C"/>
<path d="M91.6271 297.178C91.938 297.178 122.2 297.178 122.2 297.178V304.905L104.075 324.579H123.087V332.214H90.752V324.775L107.898 304.813H91.3392V297.109C91.3392 297.109 91.6041 297.178 91.6271 297.178Z" fill="#3A596C"/>
<path d="M75.6554 296.004C69.4833 295.613 66.3281 295.728 63.2305 296.246C59.5226 296.878 53.6959 298.649 53.5001 307.549H62.4129C62.4129 307.549 63.1038 302.179 70.059 302.559C71.8208 302.651 75.7475 303.34 75.7475 306.767C75.7475 310.194 72.0281 311.47 72.0281 311.47C72.0281 311.47 51.7383 309.998 51.7383 323.21C51.7383 336.422 70.1627 336.226 74.2736 329.373H76.5306V332.696H85.0518V303.536C85.0634 303.536 81.8276 296.395 75.6554 296.004ZM74.6536 323.509C74.1354 324.981 69.9554 327.177 68.4814 327.177C67.0075 327.177 60.9159 326.521 61.8717 321.6C62.8274 316.679 74.1469 316.679 74.1469 316.679C74.0663 316.679 75.1718 322.037 74.6536 323.509Z" fill="#3A596C"/>
<path d="M149.744 296.004C143.572 295.613 140.417 295.728 137.319 296.246C133.611 296.878 127.785 298.649 127.589 307.549H136.502C136.502 307.549 137.193 302.179 144.148 302.559C145.91 302.651 149.836 303.34 149.836 306.767C149.836 310.194 146.117 311.47 146.117 311.47C146.117 311.47 125.827 309.998 125.827 323.21C125.827 336.422 144.252 336.226 148.362 329.373H150.619V332.696H159.141V303.536C159.152 303.536 155.916 296.395 149.744 296.004ZM148.742 323.509C148.224 324.981 144.044 327.177 142.57 327.177C141.096 327.177 135.005 326.521 135.961 321.6C136.916 316.679 148.236 316.679 148.236 316.679C148.155 316.679 149.261 322.037 148.742 323.509Z" fill="#3A596C"/>
<path d="M206.779 297.569C206.779 297.569 204.085 286.507 192.616 286.507C181.146 286.507 180.859 295.901 180.859 296.637C180.859 297.373 181.883 302.651 188.942 303.536C196.001 304.422 213.055 307.641 213.055 319.531C213.055 331.42 200.849 333.03 200.849 333.03H189.23C189.23 333.03 175.849 333.915 174.237 316.3H179.235C179.235 316.3 179.972 327.752 189.967 328.775C199.962 329.799 204.085 326.867 204.085 326.867C204.085 326.867 207.908 324.809 207.171 319.669C206.434 314.529 199.375 311.597 199.375 311.597C199.375 311.597 177.473 308.216 175.262 299.121C173.063 290.026 184.97 282.678 186.432 282.241C187.894 281.804 199.076 282.241 199.076 282.241C199.076 282.241 210.292 285.426 211.224 297.017C211.247 297.028 206.837 297.569 206.779 297.569Z" fill="#3A596C"/>
<path d="M219.009 283.793V331.719H224.594V319.462L229.522 314.54L245.252 332.742H249.444L249.075 329.592L235.406 311.321L248.269 298.914L248.05 295.901L243.271 295.752L224.087 312.482V283.713C224.087 283.724 219.009 283.724 219.009 283.793Z" fill="#3A596C"/>
<path d="M250.008 297.569H255.109L266.129 325.487L276.861 296.051L281.421 296.12L266.129 338.17C266.129 338.17 263.561 345.805 257.896 345.954C252.242 346.104 252.242 345.736 252.242 345.736V340.596L258.045 340.527C258.045 340.527 262.893 339.055 263.262 331.788L250.008 297.569Z" fill="#3A596C"/>
<path d="M366.967 321.371C366.967 321.371 365.205 326.73 359.62 326.661C354.036 326.592 350.8 321.739 350.869 316.898H375.35L375.569 308.528C375.569 308.528 373.439 295.385 357.559 295.385C341.68 295.385 341.242 311.609 341.242 311.609V319.244C341.242 319.244 347.564 334.066 357.41 334.066C367.255 334.066 374.464 326.868 375.707 323.717L375.857 321.371H366.967V321.371ZM358.953 303.031C365.931 303.031 366.668 311.034 366.668 311.034H350.869C350.869 311.023 351.974 303.031 358.953 303.031Z" fill="#3A596C"/>
<path d="M405.486 321.371C405.486 321.371 403.724 326.73 398.139 326.661C392.554 326.592 389.318 321.739 389.387 316.898H413.869L414.088 308.528C414.088 308.528 411.957 295.385 396.078 295.385C380.198 295.385 379.761 311.609 379.761 311.609V319.244C379.761 319.244 386.083 334.066 395.928 334.066C405.774 334.066 412.982 326.868 414.226 323.717L414.376 321.371H405.486V321.371ZM397.471 303.031C404.449 303.031 405.186 311.034 405.186 311.034H389.387C389.387 311.023 390.493 303.031 397.471 303.031Z" fill="#3A596C"/>
<path d="M421.999 283.574H432.19V309.503L443.751 297.373H455.416L443.463 310.389L457.673 331.719H445.617L435.909 316.84L432.282 320.163V332.006H422.575C422.586 332.018 421.999 283.482 421.999 283.574Z" fill="#3A596C"/>
<path d="M482.074 307.457H491.482C491.482 307.457 488.545 295.832 477.813 295.982H470.098C470.098 295.982 460.39 297.155 460.39 306.112C460.39 315.069 470.167 316.53 470.167 316.53C470.167 316.53 482.074 318.875 482.074 322.474C482.074 326.073 478.688 327.465 475.533 327.097C472.378 326.729 469.061 325.039 468.255 321.152H458.778C458.778 321.152 462.601 332.973 470.167 332.973C477.732 332.973 483.467 332.973 483.467 332.973C483.467 332.973 491.988 328.201 491.988 324.751C491.988 321.302 491.988 319.393 491.988 319.393C491.988 319.393 489.858 311.907 479.782 310.884C469.706 309.861 469.2 307.871 469.568 305.158C469.948 302.444 481.118 299.477 482.074 307.457Z" fill="#3A596C"/>
<path d="M266.451 129.598C262.95 131.3 260.613 133.91 259.058 136.681C258.54 136.44 242.638 129.207 232.688 136.29C230.247 138.026 228.635 140.544 227.587 143.362C222.152 142.798 203.785 141.878 196.888 153.825C188.758 167.922 192.972 181.525 193.652 184.066C193.652 184.066 161.363 195.806 191.199 238.086C191.199 238.086 225.008 201.395 229.717 198.163L232.804 186.711L191.786 230.451C191.786 230.451 170.472 198.75 198.845 188.321C198.845 188.321 184.912 142.787 226.332 148.156C224.996 155.998 226.574 164.139 226.574 164.139L227.956 164.105C228.739 130.989 252.046 139.027 257.17 141.2C255.799 145.719 255.984 149.628 255.984 149.628L257.354 149.824C263.63 121.641 289.896 136.911 289.896 136.911L292.441 134.37C292.418 134.347 277.621 124.159 266.451 129.598Z" fill="url(#paint0_linear)"/>
<path d="M264.539 167.325L270.274 168.498L301.871 149.709L264.539 167.325Z" fill="url(#paint1_linear)"/>
<path d="M228.819 176.133L233.966 179.065C233.966 179.065 191.487 212.537 188.688 216.355L228.819 176.133Z" fill="#3A596C"/>
<path d="M249.547 161.449L251.896 167.912L302.609 142.511C302.609 142.511 308.931 149.261 309.219 159.69C309.518 170.108 305.546 179.065 292.464 184.055C292.464 184.055 305.546 211.215 287.317 219.436C269.088 227.658 265.116 222.817 265.116 222.817L264.379 205.788C264.379 205.788 263.055 227.221 252.322 229.417C241.59 231.613 236.155 230.153 236.155 230.153L236.892 221.345C236.892 221.345 234.98 229.13 232.781 230.59C230.582 232.062 219.262 246.883 203.233 233.821L199.997 237.052C199.997 237.052 205.294 244.25 216.752 243.215C228.221 242.192 235.28 233.671 235.28 233.671C235.28 233.671 250.86 242.479 263.803 227.209C263.653 226.91 290.703 234.844 299.823 212.089C299.823 212.089 306.294 201.959 297.761 186.102C297.761 186.102 320.688 178.03 311.142 148.088L304.82 135.762L249.547 161.449Z" fill="#3A596C"/>
<path d="M246.944 158.713L250.272 171.235L262.525 171.43L252.921 179.261L256.548 190.805C256.548 190.805 246.254 184.734 246.161 184.343C246.058 183.952 235.084 191.288 235.084 191.288C235.084 191.288 240.669 179.054 240.577 179.353C240.473 179.652 229.603 173.58 229.603 173.58L242.051 171.327L246.944 158.713Z" fill="url(#paint2_linear)"/>
<defs>
<linearGradient id="paint0_linear" x1="178.527" y1="183.036" x2="292.42" y2="183.036" gradientUnits="userSpaceOnUse">
<stop stop-color="#F47A23"/>
<stop offset="0.9391" stop-color="#E89923"/>
</linearGradient>
<linearGradient id="paint1_linear" x1="264.538" y1="159.1" x2="301.876" y2="159.1" gradientUnits="userSpaceOnUse">
<stop stop-color="#F47A23"/>
<stop offset="0.9391" stop-color="#E89923"/>
</linearGradient>
<linearGradient id="paint2_linear" x1="229.601" y1="175.003" x2="262.529" y2="175.003" gradientUnits="userSpaceOnUse">
<stop stop-color="#F47A23"/>
<stop offset="0.9391" stop-color="#E89923"/>
</linearGradient>
</defs>
</svg>
