<svg width="200" height="200" viewBox="0 0 400 400" fill="none" xmlns="http://www.w3.org/2000/svg">
<g clip-path="url(#clip0)">
<path d="M391.8 0.0498034C313.717 -1.3502 224.667 39.4665 168.3 102.783C114.433 103.8 61.9832 125.883 23.3666 164.5C21.1166 166.716 20.3166 170.033 21.2999 173.033C22.2999 176.05 24.8999 178.233 28.0332 178.683L92.2666 187.883L84.3332 196.766C81.3832 200.066 81.5332 205.083 84.6666 208.216L191.783 315.333C193.4 316.95 195.533 317.766 197.683 317.766C199.667 317.766 201.65 317.066 203.233 315.65L212.117 307.716L221.317 371.95C221.767 375.083 224.233 377.383 227.217 378.383C227.983 378.633 228.783 378.75 229.6 378.75C231.967 378.75 234.383 377.716 236.05 376.066C274.133 337.983 296.217 285.533 297.233 231.666C360.617 175.183 401.767 86.1665 399.95 8.18314C399.833 3.7498 396.25 0.16647 391.8 0.0498034V0.0498034ZM315 143.916C306.883 152.033 296.217 156.1 285.533 156.1C274.85 156.1 264.183 152.033 256.067 143.916C239.833 127.666 239.833 101.233 256.067 84.9831C272.317 68.7331 298.75 68.7331 315 84.9831C331.25 101.233 331.25 127.683 315 143.916Z" fill="white"/>
<path d="M45.4002 281.75C27.5669 299.583 3.08356 380.15 0.350224 389.267C-0.533109 392.2 0.283558 395.384 2.43356 397.55C4.03356 399.15 6.15023 400 8.33356 400C9.13356 400 9.93356 399.884 10.7336 399.65C19.8502 396.917 100.417 372.433 118.25 354.6C138.334 334.517 138.334 301.833 118.25 281.75C98.1502 261.667 65.4836 261.683 45.4002 281.75V281.75Z" fill="white"/>
</g>
<defs>
<clipPath id="clip0">
<rect width="400" height="400" fill="white"/>
</clipPath>
</defs>
</svg>
